<mxfile host="app.diagrams.net" modified="2024-11-12T14:32:53.445Z" agent="Mozilla/5.0 (Macintosh; Intel Mac OS X 10.15; rv:132.0) Gecko/20100101 Firefox/132.0" version="24.6.2" etag="m1AY8CnUtnIH9eC8Qcym" type="github">
  <diagram name="Page-1" id="0qDgNlSBiZvTBBBov-HA">
    <mxGraphModel>
      <root>
        <mxCell id="0" />
        <mxCell id="1" parent="0" />
      </root>
    </mxGraphModel>
  </diagram>
</mxfile>
